<?xml version="1.0" encoding="UTF-8"?>
<svg width="20.047mm" height="20.174mm" version="1.1" viewBox="0 0 20.047 20.174"
  xmlns="http://www.w3.org/2000/svg">
  <g transform="translate(-107.15 -62.484)">
    <path d="m107.15 63.93c0-0.79791 0.66323-1.4451 1.4814-1.4451h17.084c0.81815 0 1.4814 0.64722 1.4814 1.4451v17.284c0 0.79818-0.66327 1.4451-1.4814 1.4451h-17.084c-0.81819 0-1.4814-0.64696-1.4814-1.4451z" fill="#fff"/>
    <g fill="#000" fill-rule="evenodd">
      <path d="m113.23 79.372v-9.1097h-3.0279v9.1097zm-1.514-10.353c1.0559 0 1.7131-0.69952 1.7131-1.5737-0.0197-0.89388-0.6572-1.574-1.693-1.574-1.0358 0-1.713 0.68011-1.713 1.574 0 0.8742 0.65706 1.5737 1.6732 1.5737h0.0197z"/>
      <path d="m114.9 79.372h3.0279v-5.0872c0-0.27226 0.0197-0.54425 0.0996-0.73888 0.21888-0.54398 0.71709-1.1074 1.5536-1.1074 1.0956 0 1.5339 0.83538 1.5339 2.06v4.8735h3.0276v-5.2234c0-2.7981-1.4938-4.1001-3.4859-4.1001-1.6335 0-2.3506 0.91302-2.749 1.5349h0.0202v-1.3211h-3.0279c0.0397 0.85479 0 9.1097 0 9.1097z"/>
    </g>
  </g>
</svg>
