<svg xmlns="http://www.w3.org/2000/svg" viewBox="0 0 68.65 68.65">
  <title>Jack Logo</title>
  <g id="jack-logo" data-name="Jack-Logo">
    <path fill="currentColor" d="M9,8.76a1.52,1.52,0,0,0-.07-.52.7.7,0,0,0-.25-.37,1.55,1.55,0,0,0-.59-.27A7.38,7.38,0,0,0,7,7.39c-.21-.07-.32-.25-.32-.55V6.56a1,1,0,0,1,.07-.36c.68,0,1.41.08,2.19.12s1.48,0,2.1,0,1.28,0,2,0,1.5-.07,2.18-.12a3.48,3.48,0,0,1,0,.36c0,.12,0,.22,0,.28,0,.3-.1.48-.32.55a7.48,7.48,0,0,0-1.07.21,1.74,1.74,0,0,0-.61.27.65.65,0,0,0-.25.37,2.4,2.4,0,0,0,0,.52V22.62a20.83,20.83,0,0,1-.3,3.82,9.43,9.43,0,0,1-1,2.87,9.42,9.42,0,0,1-2,2.41A33.62,33.62,0,0,1,6.37,34.2c-.17-.15-.32-.28-.44-.41a.61.61,0,0,1-.17-.39A.53.53,0,0,1,5.92,33a11.88,11.88,0,0,0,1.47-1.67,8.7,8.7,0,0,0,.93-1.64,7.72,7.72,0,0,0,.49-1.8A13.11,13.11,0,0,0,9,25.82Z"/>
    <path fill="currentColor" d="M30.08,26.17c.32,0,.48.27.48.8a3,3,0,0,1-1,.43,5.44,5.44,0,0,1-1.27.15,3.13,3.13,0,0,1-2.2-.71,2.66,2.66,0,0,1-.9-1.63A3.83,3.83,0,0,1,23.44,27a5.66,5.66,0,0,1-2.51.53,11.76,11.76,0,0,1-1.49-.11A4.68,4.68,0,0,1,17.93,27a3.24,3.24,0,0,1-1.16-1,2.76,2.76,0,0,1-.48-1.7,3.32,3.32,0,0,1,.6-2,5.32,5.32,0,0,1,1.52-1.39,8.43,8.43,0,0,1,2-.9c.73-.22,1.41-.41,2.05-.56l.87-.21L24,19a.74.74,0,0,0,.45-.28,2.62,2.62,0,0,0,.09-.91,5.33,5.33,0,0,0-.48-2.51,1.7,1.7,0,0,0-1.63-.88,1.5,1.5,0,0,0-1.33.58,6.67,6.67,0,0,0-.75,1.82.81.81,0,0,1-.56.53c-.31.12-.7.24-1.17.37l-.78.16a5,5,0,0,1-.72.06.27.27,0,0,1-.26-.14,1.75,1.75,0,0,1-.06-.56,2.56,2.56,0,0,1,.59-1.57,6.11,6.11,0,0,1,1.49-1.36,8.16,8.16,0,0,1,2-.95,6.7,6.7,0,0,1,2.06-.35,10.11,10.11,0,0,1,2.15.21,4,4,0,0,1,1.64.73,3.57,3.57,0,0,1,1.08,1.41,5.73,5.73,0,0,1,.38,2.25v5.62c0,.74,0,1.29,0,1.63a2.32,2.32,0,0,0,.17.76,1,1,0,0,0,.9.58,1.8,1.8,0,0,0,.43,0Zm-5.51-6-.7.13a7.34,7.34,0,0,0-1.38.36,3.83,3.83,0,0,0-1.1.64,3,3,0,0,0-.74,1,3.39,3.39,0,0,0-.27,1.42,2.82,2.82,0,0,0,.4,1.74A1.43,1.43,0,0,0,22,26a2.31,2.31,0,0,0,1.92-.9,3.9,3.9,0,0,0,.7-2.49Z"/>
    <path fill="currentColor" d="M38.53,14.46a2.15,2.15,0,0,0-2,1.33,7.91,7.91,0,0,0-.67,3.57A7.5,7.5,0,0,0,37,24a3.94,3.94,0,0,0,3.28,1.47,6.58,6.58,0,0,0,1.52-.18,5,5,0,0,0,1.64-.75,1.16,1.16,0,0,1,.58-.19.51.51,0,0,1,.42.21,4,4,0,0,1,.35.65,10,10,0,0,1-2.51,1.64,8.62,8.62,0,0,1-3.57.67,8.39,8.39,0,0,1-2.67-.42,5.91,5.91,0,0,1-3.7-3.44,7.88,7.88,0,0,1-.54-3.05,7.13,7.13,0,0,1,.65-3.09,8.34,8.34,0,0,1,1.68-2.4,7.28,7.28,0,0,1,2.31-1.55,6.2,6.2,0,0,1,2.49-.55,8.77,8.77,0,0,1,2.63.35,6.09,6.09,0,0,1,1.77.88,3.7,3.7,0,0,1,1,1.12,2.38,2.38,0,0,1,.32,1.08c0,.17-.16.31-.46.41a5.12,5.12,0,0,1-1,.24,9,9,0,0,1-1.11.1h-.69a.61.61,0,0,1-.46-.17.9.9,0,0,1-.24-.37c-.11-.28-.21-.55-.32-.82a4.86,4.86,0,0,0-.37-.72,1.54,1.54,0,0,0-.56-.51A1.81,1.81,0,0,0,38.53,14.46Z"/>
    <path fill="currentColor" d="M52.29,25.18a.83.83,0,0,0,.24.66,3.79,3.79,0,0,0,1.16.46.66.66,0,0,1,.24.11.36.36,0,0,1,.12.31,3.08,3.08,0,0,1,0,.33,1.86,1.86,0,0,1-.05.27l-1.66-.11c-.54,0-1.15-.05-1.86-.05s-1.55,0-2.14.05l-1.73.11a1.86,1.86,0,0,1-.05-.27c0-.09,0-.21,0-.33a.36.36,0,0,1,.11-.31.66.66,0,0,1,.24-.11,5.39,5.39,0,0,0,1.31-.4.77.77,0,0,0,.48-.72V8.41A2.52,2.52,0,0,0,48.32,7a2,2,0,0,0-1.47-.6.48.48,0,0,1-.42-.51V5.6a.48.48,0,0,1,.06-.26l.56,0,.79,0c.27,0,.55,0,.83,0l.77-.06A14.34,14.34,0,0,0,51,4.92a6.49,6.49,0,0,1,1-.16q.51,0,.51.48a5.18,5.18,0,0,1-.1.92,10.56,10.56,0,0,0-.09,1.58V19.23L57,15.29a.52.52,0,0,0,.25-.41c0-.3-.36-.48-1.08-.55q-.39,0-.39-.48a1.79,1.79,0,0,1,.07-.51c1,.06,2,.1,3.1.1l1.42,0c.46,0,1,0,1.49-.08a2.06,2.06,0,0,0,.07.29,1,1,0,0,1,0,.22.46.46,0,0,1-.45.51,5.47,5.47,0,0,0-1.31.28,2.71,2.71,0,0,0-.77.43l-3.74,3.26L60.51,25a2.82,2.82,0,0,0,1,.93,3.46,3.46,0,0,0,1.1.35.38.38,0,0,1,.35.42c0,.06,0,.16,0,.28a1.14,1.14,0,0,1-.08.32l-2.47,0-2.65,0-5.28-7.2h-.16Z"/>
    <rect fill="none" stroke="currentColor" stroke-width="4px" rx="4px" x="1" y="1" width="66.65" height="66.65"/>
  </g>
</svg>